<svg width="0" height="0" class="hidden">
    <!-- Logo -->
    <symbol xmlns="http://www.w3.org/2000/svg" fill="none" stroke="currentColor" stroke-width="2" stroke-linecap="round" stroke-linejoin="round" viewBox="0 0 24 24" id="logo">
        <path stroke-linecap="round" stroke-linejoin="round" d="M3 15c2.483 0 4.345-3 4.345-3s1.862 3 4.345 3c2.482 0 4.965-3 4.965-3s2.483 3 4.345 3M3 20c2.483 0 4.345-3 4.345-3s1.862 3 4.345 3c2.482 0 4.965-3 4.965-3s2.483 3 4.345 3M19 10a7 7 0 10-14 0"></path>
    </symbol>
    <!-- Home -->
    <symbol xmlns="http://www.w3.org/2000/svg" fill="none" stroke="currentColor" stroke-width="1.8" stroke-linecap="round" stroke-linejoin="round" viewBox="0 0 24 24" id="home">
        <path stroke-linecap="round" stroke-linejoin="round" d="M8.25 21v-4.875c0-.621.504-1.125 1.125-1.125h2.25c.621 0 1.125.504 1.125 1.125V21m0 0h4.5V3.545M12.75 21h7.5V10.75M2.25 21h1.5m18 0h-18M2.25 9l4.5-1.636M18.75 3l-1.5.545m0 6.205l3 1m1.5.5l-1.5-.5M6.75 7.364V3h-3v18m3-13.636l10.5-3.819" />
    </symbol>
    <!-- Plus -->
    <symbol xmlns="http://www.w3.org/2000/svg" fill="none" stroke="currentColor" stroke-width="2" stroke-linecap="round" stroke-linejoin="round" viewBox="0 0 24 24" id="plus">
        <path stroke-linecap="round" stroke-linejoin="round" d="M12 4.5v15m7.5-7.5h-15" />
    </symbol>
    <!-- Like -->
    <symbol xmlns="http://www.w3.org/2000/svg" fill="none" stroke="currentColor" stroke-width="2" stroke-linecap="round" stroke-linejoin="round" viewBox="0 0 24 24" id="like">   
        <path d="M8 15C11.866 15 15 11.866 15 8C15 4.13401 11.866 1 8 1C4.13401 1 1 4.13401 1 8C1 11.866 4.13401 15 8 15Z" stroke="black" stroke-width="2" stroke-linecap="round" stroke-linejoin="round"/>
        <path d="M4.21 13.89L3 23L8 20L13 23L11.79 13.88" stroke="black" stroke-width="2" stroke-linecap="round" stroke-linejoin="round"/>
    </symbol>
</svg>
